<svg xmlns="http://www.w3.org/2000/svg" viewBox="0 0 720 430" role="img" aria-labelledby="title desc">
  <title id="title">Flight traveller details illustration</title>
  <desc id="desc">A flight boarding pass and traveller checklist for web check-in readiness.</desc>
  <defs>
    <linearGradient id="bg" x1="0" x2="1" y1="0" y2="1">
      <stop offset="0" stop-color="#fff8f4"/>
      <stop offset="0.55" stop-color="#fff"/>
      <stop offset="1" stop-color="#edf6ff"/>
    </linearGradient>
    <linearGradient id="primary" x1="0" x2="1">
      <stop offset="0" stop-color="#f04423"/>
      <stop offset="1" stop-color="#df3f1f"/>
    </linearGradient>
    <filter id="shadow" x="-20%" y="-20%" width="140%" height="140%">
      <feDropShadow dx="0" dy="18" stdDeviation="16" flood-color="#7d3b1f" flood-opacity="0.16"/>
    </filter>
  </defs>
  <rect width="720" height="430" rx="28" fill="url(#bg)"/>
  <circle cx="585" cy="82" r="96" fill="#f04423" opacity="0.08"/>
  <circle cx="118" cy="340" r="118" fill="#1f2a44" opacity="0.07"/>
  <g filter="url(#shadow)">
    <rect x="72" y="74" width="370" height="282" rx="30" fill="#fff"/>
    <rect x="72" y="74" width="370" height="72" rx="30" fill="#1f2a44"/>
    <text x="108" y="120" fill="#fff" font-family="Arial, sans-serif" font-size="24" font-weight="800">Boarding Pass</text>
    <g transform="translate(106 178)">
      <text x="0" y="0" fill="#56678a" font-family="Arial, sans-serif" font-size="14" font-weight="800">PASSENGER</text>
      <text x="0" y="30" fill="#11213f" font-family="Arial, sans-serif" font-size="25" font-weight="900">AARAV M</text>
      <rect x="0" y="56" width="286" height="1" fill="#f1d9ce"/>
      <text x="0" y="94" fill="#56678a" font-family="Arial, sans-serif" font-size="14" font-weight="800">PNR</text>
      <text x="0" y="123" fill="#11213f" font-family="Arial, sans-serif" font-size="24" font-weight="900">TD8K42</text>
      <text x="160" y="94" fill="#56678a" font-family="Arial, sans-serif" font-size="14" font-weight="800">SEAT</text>
      <text x="160" y="123" fill="#11213f" font-family="Arial, sans-serif" font-size="24" font-weight="900">12A</text>
    </g>
    <g transform="translate(372 236)">
      <rect x="0" y="0" width="166" height="94" rx="22" fill="#fff" stroke="#f4c9bb"/>
      <text x="22" y="34" fill="#11213f" font-family="Arial, sans-serif" font-size="18" font-weight="900">Web Check-in</text>
      <rect x="22" y="52" width="18" height="28" rx="3" fill="#1f2a44"/>
      <rect x="48" y="52" width="8" height="28" rx="3" fill="#f04423"/>
      <rect x="64" y="52" width="16" height="28" rx="3" fill="#1f2a44"/>
      <rect x="88" y="52" width="10" height="28" rx="3" fill="#f04423"/>
      <rect x="106" y="52" width="22" height="28" rx="3" fill="#1f2a44"/>
      <rect x="136" y="52" width="8" height="28" rx="3" fill="#f04423"/>
    </g>
    <g transform="translate(466 96)">
      <rect width="150" height="164" rx="24" fill="#fff" stroke="#f4c9bb"/>
      <text x="24" y="42" fill="#11213f" font-family="Arial, sans-serif" font-size="18" font-weight="900">Ready List</text>
      <g fill="none" stroke-linecap="round" stroke-linejoin="round" stroke-width="5">
        <path d="M27 76l12 12 23-28" stroke="#f04423"/>
        <path d="M27 116l12 12 23-28" stroke="#f04423"/>
      </g>
      <rect x="76" y="65" width="46" height="8" rx="4" fill="#f4b4a4"/>
      <rect x="76" y="105" width="52" height="8" rx="4" fill="#f4b4a4"/>
    </g>
  </g>
</svg>
