<svg xmlns="http://www.w3.org/2000/svg" viewBox="0 0 1600 960" role="img" aria-labelledby="title desc">
  <title id="title">Secure verification role background</title>
  <desc id="desc">A cinematic security and OTP verification travel background in the Atlas theme.</desc>
  <defs>
    <linearGradient id="bg" x1="0" y1="0" x2="1" y2="1">
      <stop offset="0" stop-color="#07151a"/>
      <stop offset="0.52" stop-color="#173b55"/>
      <stop offset="1" stop-color="#eaf0ff"/>
    </linearGradient>
    <linearGradient id="atlas" x1="0" y1="0" x2="1" y2="1">
      <stop offset="0" stop-color="#dc1e26"/>
      <stop offset="1" stop-color="#b8141b"/>
    </linearGradient>
    <filter id="shadow" x="-20%" y="-20%" width="140%" height="140%">
      <feDropShadow dx="0" dy="32" stdDeviation="26" flood-color="#06171c" flood-opacity="0.34"/>
    </filter>
  </defs>
  <rect width="1600" height="960" fill="url(#bg)"/>
  <path d="M0 720C180 630 344 624 510 692c156 64 306 66 480 0 220-84 390-70 610 38v230H0Z" fill="#F3F4F6"/>
  <circle cx="310" cy="196" r="190" fill="#b8141b" opacity="0.16"/>
  <circle cx="1235" cy="164" r="210" fill="#dc1e26" opacity="0.2"/>
  <g opacity="0.26" stroke="#fef2f2" stroke-width="3">
    <path d="M180 148h220M250 222h300M1020 228h300M1040 310h210M690 132h160"/>
  </g>
  <g filter="url(#shadow)">
    <path d="M810 176 1070 282v178c0 178-126 270-260 342-134-72-260-164-260-342V282Z" fill="#ffffff" opacity="0.96"/>
    <path d="M810 226 1014 310v143c0 132-88 205-204 270-116-65-204-138-204-270V310Z" fill="#F3F4F6" stroke="#E5E7EB"/>
    <path d="M720 460l62 64 138-172" fill="none" stroke="#dc1e26" stroke-width="34" stroke-linecap="round" stroke-linejoin="round"/>
    <rect x="690" y="604" width="238" height="38" rx="19" fill="url(#atlas)"/>
  </g>
  <g transform="translate(260 280)" filter="url(#shadow)">
    <rect x="0" y="0" width="360" height="250" rx="36" fill="#ffffff" opacity="0.96"/>
    <rect x="42" y="52" width="140" height="22" rx="11" fill="#17242d"/>
    <rect x="42" y="108" width="276" height="72" rx="20" fill="#F3F4F6" stroke="#E5E7EB"/>
    <g fill="#dc1e26">
      <circle cx="86" cy="144" r="12"/>
      <circle cx="132" cy="144" r="12"/>
      <circle cx="178" cy="144" r="12"/>
      <circle cx="224" cy="144" r="12"/>
      <circle cx="270" cy="144" r="12"/>
    </g>
    <rect x="42" y="206" width="168" height="24" rx="12" fill="url(#atlas)"/>
  </g>
  <g transform="translate(1110 570)" filter="url(#shadow)">
    <rect x="0" y="0" width="230" height="132" rx="28" fill="#ffffff"/>
    <circle cx="64" cy="66" r="34" fill="#dc1e26"/>
    <path d="M112 48h84M112 76h58" stroke="#17242d" stroke-width="15" stroke-linecap="round"/>
  </g>
</svg>
