<svg xmlns="http://www.w3.org/2000/svg" viewBox="0 0 1600 960" role="img" aria-labelledby="title desc">
  <title id="title">Admin command role background</title>
  <desc id="desc">A premium operations command background for admin login in the Atlas theme.</desc>
  <defs>
    <linearGradient id="bg" x1="0" y1="0" x2="1" y2="1">
      <stop offset="0" stop-color="#081014"/>
      <stop offset="0.5" stop-color="#10233f"/>
      <stop offset="1" stop-color="#b8141b"/>
    </linearGradient>
    <linearGradient id="atlas" x1="0" y1="0" x2="1" y2="1">
      <stop offset="0" stop-color="#dc1e26"/>
      <stop offset="1" stop-color="#b8141b"/>
    </linearGradient>
    <filter id="shadow" x="-20%" y="-20%" width="140%" height="140%">
      <feDropShadow dx="0" dy="28" stdDeviation="28" flood-color="#000000" flood-opacity="0.38"/>
    </filter>
  </defs>
  <rect width="1600" height="960" fill="url(#bg)"/>
  <circle cx="1280" cy="180" r="230" fill="#dc1e26" opacity="0.16"/>
  <circle cx="360" cy="760" r="280" fill="#b8141b" opacity="0.16"/>
  <path d="M0 760C240 666 446 690 626 750c160 54 326 52 520-18 210-76 382-64 454-24v252H0Z" fill="#F3F4F6" opacity="0.94"/>
  <g opacity="0.22" stroke="#fef2f2" stroke-width="2">
    <path d="M150 180h1300M150 260h1300M150 340h1300M150 420h1300"/>
    <path d="M240 112v470M440 112v470M640 112v470M840 112v470M1040 112v470M1240 112v470"/>
  </g>
  <g filter="url(#shadow)">
    <rect x="310" y="170" width="780" height="430" rx="38" fill="#ffffff" opacity="0.95"/>
    <rect x="350" y="214" width="704" height="70" rx="22" fill="#17242d"/>
    <circle cx="390" cy="249" r="10" fill="#dc1e26"/>
    <circle cx="424" cy="249" r="10" fill="#dc1e26"/>
    <circle cx="458" cy="249" r="10" fill="#dc1e26"/>
    <rect x="382" y="332" width="172" height="124" rx="22" fill="#F3F4F6" stroke="#E5E7EB"/>
    <rect x="596" y="332" width="172" height="124" rx="22" fill="#F3F4F6" stroke="#E5E7EB"/>
    <rect x="810" y="332" width="172" height="124" rx="22" fill="#F3F4F6" stroke="#E5E7EB"/>
    <path d="M410 420l42-46 34 24 48-60" fill="none" stroke="#dc1e26" stroke-width="13" stroke-linecap="round" stroke-linejoin="round"/>
    <path d="M632 420V366M682 420V350M732 420V386" stroke="#b8141b" stroke-width="18" stroke-linecap="round"/>
    <circle cx="896" cy="394" r="42" fill="url(#atlas)"/>
    <path d="M878 394l16 16 34-44" fill="none" stroke="#ffffff" stroke-width="10" stroke-linecap="round" stroke-linejoin="round"/>
    <rect x="382" y="500" width="454" height="26" rx="13" fill="#17242d" opacity="0.82"/>
    <rect x="382" y="540" width="310" height="18" rx="9" fill="#66757b" opacity="0.55"/>
  </g>
  <g transform="translate(1130 410)" filter="url(#shadow)">
    <rect x="0" y="0" width="230" height="260" rx="34" fill="#ffffff"/>
    <path d="M70 94v-22c0-32 26-58 58-58s58 26 58 58v22" fill="none" stroke="#17242d" stroke-width="16" stroke-linecap="round"/>
    <rect x="48" y="88" width="166" height="128" rx="28" fill="url(#atlas)"/>
    <circle cx="131" cy="148" r="18" fill="#ffffff"/>
    <path d="M131 164v28" stroke="#ffffff" stroke-width="12" stroke-linecap="round"/>
  </g>
</svg>
