<svg xmlns="http://www.w3.org/2000/svg" viewBox="0 0 1600 960" role="img" aria-labelledby="title desc">
  <title id="title">Traveller role background</title>
  <desc id="desc">A premium travel dashboard landscape for customer login in the Atlas theme.</desc>
  <defs>
    <linearGradient id="sky" x1="0" y1="0" x2="1" y2="1">
      <stop offset="0" stop-color="#0f2a34"/>
      <stop offset="0.48" stop-color="#0b5f69"/>
      <stop offset="1" stop-color="#F3F4F6"/>
    </linearGradient>
    <linearGradient id="card" x1="0" y1="0" x2="1" y2="1">
      <stop offset="0" stop-color="#ffffff" stop-opacity="0.98"/>
      <stop offset="1" stop-color="#fef2f2" stop-opacity="0.9"/>
    </linearGradient>
    <linearGradient id="atlas" x1="0" y1="0" x2="1" y2="1">
      <stop offset="0" stop-color="#dc1e26"/>
      <stop offset="1" stop-color="#b8141b"/>
    </linearGradient>
    <filter id="shadow" x="-20%" y="-20%" width="140%" height="140%">
      <feDropShadow dx="0" dy="28" stdDeviation="26" flood-color="#06171c" flood-opacity="0.28"/>
    </filter>
  </defs>
  <rect width="1600" height="960" fill="url(#sky)"/>
  <circle cx="1320" cy="140" r="170" fill="#dc1e26" opacity="0.18"/>
  <circle cx="250" cy="200" r="210" fill="#dc1e26" opacity="0.2"/>
  <path d="M0 690C190 590 360 590 530 664c150 66 302 68 470 4 210-80 375-58 600 44v248H0Z" fill="#F3F4F6"/>
  <path d="M0 762C210 670 420 672 610 742c150 55 292 54 470 0 214-66 380-52 520 16v202H0Z" fill="#fef2f2"/>
  <path d="M122 720C365 565 598 596 820 700c150 70 286 76 464 8" fill="none" stroke="#dc1e26" stroke-width="10" stroke-linecap="round" stroke-dasharray="28 24" opacity="0.52"/>
  <g filter="url(#shadow)">
    <rect x="705" y="182" width="520" height="330" rx="34" fill="url(#card)" stroke="#ffffff" stroke-opacity="0.6"/>
    <rect x="750" y="230" width="210" height="24" rx="12" fill="#17242d"/>
    <rect x="750" y="288" width="398" height="74" rx="20" fill="#ffffff" stroke="#E5E7EB"/>
    <circle cx="796" cy="325" r="18" fill="url(#atlas)"/>
    <rect x="830" y="312" width="170" height="14" rx="7" fill="#66757b"/>
    <rect x="830" y="338" width="96" height="10" rx="5" fill="#66757b" opacity="0.45"/>
    <rect x="750" y="392" width="168" height="62" rx="19" fill="#ffffff" stroke="#E5E7EB"/>
    <rect x="946" y="392" width="202" height="62" rx="19" fill="#ffffff" stroke="#E5E7EB"/>
    <rect x="780" y="415" width="92" height="14" rx="7" fill="#b8141b"/>
    <rect x="982" y="415" width="112" height="14" rx="7" fill="#b8141b"/>
  </g>
  <g transform="translate(305 276)" filter="url(#shadow)">
    <path d="M94 282h374c33 0 60-27 60-60V92c0-33-27-60-60-60H94c-33 0-60 27-60 60v130c0 33 27 60 60 60Z" fill="#ffffff" opacity="0.96"/>
    <path d="M92 206h430" stroke="#17242d" stroke-width="18" stroke-linecap="round" opacity="0.16"/>
    <path d="M98 90h110M98 128h72" stroke="#17242d" stroke-width="18" stroke-linecap="round"/>
    <path d="M306 96c42-36 88-36 132 0" fill="none" stroke="#dc1e26" stroke-width="18" stroke-linecap="round"/>
    <path d="M320 148h154" stroke="#b8141b" stroke-width="18" stroke-linecap="round"/>
    <circle cx="128" cy="286" r="24" fill="#17242d"/>
    <circle cx="448" cy="286" r="24" fill="#17242d"/>
  </g>
  <g transform="translate(1085 540)" filter="url(#shadow)">
    <rect x="0" y="34" width="118" height="174" rx="30" fill="#dc1e26"/>
    <path d="M28 34V18C28-4 46-22 68-22s40 18 40 40v16" fill="none" stroke="#17242d" stroke-width="13" stroke-linecap="round"/>
    <circle cx="28" cy="222" r="15" fill="#17242d"/>
    <circle cx="96" cy="222" r="15" fill="#17242d"/>
    <path d="M32 82h74M32 118h48" stroke="#ffffff" stroke-width="12" stroke-linecap="round" opacity="0.74"/>
  </g>
</svg>
