<svg xmlns="http://www.w3.org/2000/svg" viewBox="20 35 680 360" role="img" aria-labelledby="title desc">
  <title id="title">Flight route search illustration</title>
  <desc id="desc">A bright flight route card with city markers, route line, and airplane.</desc>
  <defs>
    <linearGradient id="bg" x1="0" x2="1" y1="0" y2="1">
      <stop offset="0" stop-color="#fff9f5"/>
      <stop offset="0.52" stop-color="#fef2f2"/>
      <stop offset="1" stop-color="#eef6ff"/>
    </linearGradient>
    <linearGradient id="primary" x1="0" x2="1">
      <stop offset="0" stop-color="#dc1e26"/>
      <stop offset="1" stop-color="#b8141b"/>
    </linearGradient>
    <filter id="shadow" x="-20%" y="-20%" width="140%" height="140%">
      <feDropShadow dx="0" dy="18" stdDeviation="16" flood-color="#7d3b1f" flood-opacity="0.18"/>
    </filter>
  </defs>
  <g filter="url(#shadow)">
    <rect x="62" y="70" width="596" height="286" rx="28" fill="#fff"/>
    <rect x="62" y="70" width="596" height="70" rx="28" fill="#1f2a44"/>
    <text x="96" y="115" fill="#fff" font-family="Arial, sans-serif" font-size="24" font-weight="700">Flight Route Search</text>
    <g transform="translate(108 178)">
      <rect width="170" height="84" rx="18" fill="#fff8f4" stroke="#E5E7EB"/>
      <text x="24" y="34" fill="#56678a" font-family="Arial, sans-serif" font-size="16" font-weight="700">FROM</text>
      <text x="24" y="62" fill="#11213f" font-family="Arial, sans-serif" font-size="24" font-weight="800">HYD</text>
    </g>
    <g transform="translate(442 178)">
      <rect width="170" height="84" rx="18" fill="#fff8f4" stroke="#E5E7EB"/>
      <text x="24" y="34" fill="#56678a" font-family="Arial, sans-serif" font-size="16" font-weight="700">TO</text>
      <text x="24" y="62" fill="#11213f" font-family="Arial, sans-serif" font-size="24" font-weight="800">DEL</text>
    </g>
    <path d="M282 220 C330 170, 392 170, 438 220" fill="none" stroke="#dc1e26" stroke-width="5" stroke-linecap="round" stroke-dasharray="12 14"/>
    <g transform="translate(316 168)">
      <rect width="88" height="58" rx="18" fill="#fff" stroke="#E5E7EB"/>
      <circle cx="24" cy="29" r="10" fill="#dc1e26"/>
      <circle cx="64" cy="29" r="10" fill="#1f2a44"/>
      <path d="M34 29h20" stroke="#dc1e26" stroke-width="4" stroke-linecap="round"/>
      <text x="44" y="50" text-anchor="middle" fill="#56678a" font-family="Arial, sans-serif" font-size="11" font-weight="800">DIRECT</text>
    </g>
    <g transform="translate(110 292)">
      <rect width="500" height="36" rx="18" fill="#fef2f2"/>
      <circle cx="28" cy="18" r="10" fill="#dc1e26"/>
      <rect x="52" y="13" width="128" height="10" rx="5" fill="#f4b4a4"/>
      <rect x="210" y="13" width="94" height="10" rx="5" fill="#f4b4a4"/>
      <rect x="334" y="13" width="126" height="10" rx="5" fill="#f4b4a4"/>
    </g>
  </g>
</svg>
