<svg xmlns="http://www.w3.org/2000/svg" viewBox="0 0 520 320" role="img" aria-labelledby="title desc">
  <title id="title">Hotel room comparison</title>
  <desc id="desc">Room cards comparing beds, amenities, and nightly rates in the Atlas theme.</desc>
  <defs>
    <linearGradient id="brand" x1="0" y1="0" x2="1" y2="1">
      <stop offset="0" stop-color="#dc1e26"/>
      <stop offset="1" stop-color="#b8141b"/>
    </linearGradient>
    <filter id="shadow" x="-20%" y="-20%" width="140%" height="140%">
      <feDropShadow dx="0" dy="16" stdDeviation="16" flood-color="#0c2e33" flood-opacity="0.14"/>
    </filter>
  </defs>
  <rect width="520" height="320" rx="28" fill="#F3F4F6"/>
  <path d="M68 254C142 206 206 210 276 238c56 22 116 20 190-16" fill="none" stroke="#dc1e26" stroke-width="6" stroke-linecap="round" stroke-dasharray="14 16" opacity="0.36"/>
  <g filter="url(#shadow)">
    <rect x="56" y="72" width="156" height="198" rx="20" fill="#ffffff" stroke="#E5E7EB"/>
    <rect x="82" y="104" width="104" height="54" rx="14" fill="#fef2f2"/>
    <rect x="94" y="132" width="80" height="18" rx="7" fill="url(#brand)"/>
    <rect x="82" y="178" width="86" height="12" rx="6" fill="#17242d"/>
    <rect x="82" y="202" width="112" height="10" rx="5" fill="#66757b" opacity="0.55"/>
    <rect x="82" y="228" width="78" height="22" rx="11" fill="#dc1e26"/>
  </g>
  <g filter="url(#shadow)">
    <rect x="232" y="48" width="180" height="232" rx="22" fill="#ffffff" stroke="#E5E7EB"/>
    <rect x="260" y="84" width="124" height="66" rx="16" fill="#eaf0ff"/>
    <path d="M274 132h94" stroke="#b8141b" stroke-width="18" stroke-linecap="round"/>
    <path d="M274 114h28" stroke="#dc1e26" stroke-width="16" stroke-linecap="round"/>
    <rect x="260" y="174" width="112" height="13" rx="7" fill="#17242d"/>
    <rect x="260" y="202" width="132" height="10" rx="5" fill="#66757b" opacity="0.55"/>
    <rect x="260" y="228" width="94" height="24" rx="12" fill="url(#brand)"/>
    <circle cx="382" cy="236" r="18" fill="#dc1e26"/>
    <path d="M374 236h16M382 228v16" stroke="#ffffff" stroke-width="4" stroke-linecap="round"/>
  </g>
  <g transform="translate(410 102)">
    <rect x="0" y="0" width="58" height="78" rx="16" fill="#ffffff" stroke="#E5E7EB"/>
    <circle cx="29" cy="26" r="12" fill="#dc1e26"/>
    <path d="M18 54h24" stroke="#b8141b" stroke-width="7" stroke-linecap="round"/>
  </g>
</svg>
