<svg xmlns="http://www.w3.org/2000/svg" viewBox="0 0 1200 640" role="img" aria-labelledby="title desc">
  <title id="title">Atlas hotel booking hero</title>
  <desc id="desc">A modern hotel entrance with skyline, palms, luggage, and Atlas teal route accents.</desc>
  <defs>
    <linearGradient id="sky" x1="0" y1="0" x2="1" y2="1">
      <stop offset="0" stop-color="#fef2f2"/>
      <stop offset="0.56" stop-color="#F9FAFB"/>
      <stop offset="1" stop-color="#eaf0ff"/>
    </linearGradient>
    <linearGradient id="glass" x1="0" y1="0" x2="1" y2="1">
      <stop offset="0" stop-color="#b8141b" stop-opacity="0.85"/>
      <stop offset="1" stop-color="#dc1e26" stop-opacity="0.86"/>
    </linearGradient>
    <linearGradient id="door" x1="0" y1="0" x2="1" y2="1">
      <stop offset="0" stop-color="#17242d"/>
      <stop offset="1" stop-color="#b8141b"/>
    </linearGradient>
    <filter id="shadow" x="-20%" y="-20%" width="140%" height="140%">
      <feDropShadow dx="0" dy="22" stdDeviation="18" flood-color="#0c2e33" flood-opacity="0.18"/>
    </filter>
  </defs>
  <rect width="1200" height="640" fill="url(#sky)"/>
  <circle cx="1020" cy="112" r="82" fill="#dc1e26" opacity="0.16"/>
  <circle cx="180" cy="140" r="112" fill="#dc1e26" opacity="0.12"/>
  <path d="M76 514C236 422 390 426 548 492c126 52 260 52 406-8 72-30 124-36 180-24" fill="none" stroke="#dc1e26" stroke-width="7" stroke-linecap="round" stroke-dasharray="18 20" opacity="0.42"/>
  <g opacity="0.58">
    <rect x="74" y="274" width="92" height="218" rx="14" fill="#ffffff"/>
    <rect x="194" y="218" width="116" height="274" rx="16" fill="#ffffff"/>
    <rect x="944" y="246" width="108" height="246" rx="15" fill="#ffffff"/>
    <rect x="1078" y="300" width="78" height="192" rx="12" fill="#ffffff"/>
  </g>
  <g filter="url(#shadow)">
    <path d="M372 176h456c32 0 58 26 58 58v280H314V234c0-32 26-58 58-58Z" fill="#ffffff"/>
    <path d="M330 286h540v230H330z" fill="#F3F4F6"/>
    <path d="M398 144h404c18 0 32 14 32 32v42H366v-42c0-18 14-32 32-32Z" fill="#17242d"/>
    <text x="600" y="190" text-anchor="middle" fill="#ffffff" font-family="Arial, sans-serif" font-size="34" font-weight="900" letter-spacing="5">STAY</text>
    <g fill="url(#glass)">
      <rect x="386" y="246" width="74" height="58" rx="12"/>
      <rect x="496" y="246" width="74" height="58" rx="12"/>
      <rect x="630" y="246" width="74" height="58" rx="12"/>
      <rect x="740" y="246" width="74" height="58" rx="12"/>
      <rect x="386" y="334" width="74" height="58" rx="12"/>
      <rect x="496" y="334" width="74" height="58" rx="12"/>
      <rect x="740" y="334" width="74" height="58" rx="12"/>
    </g>
    <path d="M576 332h96c28 0 50 22 50 50v134H526V382c0-28 22-50 50-50Z" fill="url(#door)"/>
    <path d="M624 342v174" stroke="#fef2f2" stroke-width="3" opacity="0.6"/>
    <circle cx="604" cy="432" r="5" fill="#dc1e26"/>
    <circle cx="648" cy="432" r="5" fill="#dc1e26"/>
    <path d="M292 516h624" stroke="#17242d" stroke-width="18" stroke-linecap="round" opacity="0.12"/>
  </g>
  <g transform="translate(905 378)">
    <path d="M54 148h58c12 0 22-10 22-22V58c0-12-10-22-22-22H74l-20 20v90Z" fill="#dc1e26"/>
    <path d="M78 36v-9c0-16 13-29 29-29s29 13 29 29v9" fill="none" stroke="#17242d" stroke-width="9" stroke-linecap="round"/>
    <circle cx="74" cy="158" r="10" fill="#17242d"/>
    <circle cx="120" cy="158" r="10" fill="#17242d"/>
  </g>
  <g transform="translate(190 360)" fill="#b8141b">
    <path d="M80 142c-10-52 12-112 52-142 8 54-4 104-52 142Z"/>
    <path d="M72 142C50 92 20 58 0 44c50-2 88 36 72 98Z" opacity="0.76"/>
    <path d="M80 142c26-44 58-72 104-78-28 48-64 76-104 78Z" opacity="0.72"/>
    <rect x="70" y="136" width="18" height="76" rx="9" fill="#17242d"/>
  </g>
  <g fill="#dc1e26" opacity="0.9">
    <circle cx="430" cy="174" r="5"/>
    <circle cx="760" cy="174" r="5"/>
    <circle cx="824" cy="430" r="6"/>
  </g>
</svg>
