<svg xmlns="http://www.w3.org/2000/svg" viewBox="0 0 520 320" role="img" aria-labelledby="title desc">
  <title id="title">Hotel destination search</title>
  <desc id="desc">A hotel search card with destination, date, and map details in the Atlas theme.</desc>
  <defs>
    <linearGradient id="panel" x1="0" y1="0" x2="1" y2="1">
      <stop offset="0" stop-color="#ffffff"/>
      <stop offset="1" stop-color="#F3F4F6"/>
    </linearGradient>
    <linearGradient id="brand" x1="0" y1="0" x2="1" y2="1">
      <stop offset="0" stop-color="#dc1e26"/>
      <stop offset="1" stop-color="#b8141b"/>
    </linearGradient>
    <filter id="shadow" x="-20%" y="-20%" width="140%" height="140%">
      <feDropShadow dx="0" dy="16" stdDeviation="16" flood-color="#0c2e33" flood-opacity="0.14"/>
    </filter>
  </defs>
  <rect width="520" height="320" rx="28" fill="#F9FAFB"/>
  <circle cx="438" cy="70" r="54" fill="#dc1e26" opacity="0.13"/>
  <circle cx="88" cy="252" r="70" fill="#dc1e26" opacity="0.1"/>
  <g filter="url(#shadow)">
    <rect x="70" y="54" width="340" height="214" rx="24" fill="url(#panel)" stroke="#E5E7EB"/>
    <rect x="96" y="88" width="154" height="18" rx="9" fill="#17242d"/>
    <rect x="96" y="124" width="260" height="42" rx="14" fill="#ffffff" stroke="#E5E7EB"/>
    <circle cx="122" cy="145" r="10" fill="url(#brand)"/>
    <rect x="140" y="137" width="118" height="10" rx="5" fill="#66757b" opacity="0.65"/>
    <rect x="96" y="180" width="118" height="42" rx="14" fill="#ffffff" stroke="#E5E7EB"/>
    <rect x="230" y="180" width="126" height="42" rx="14" fill="#ffffff" stroke="#E5E7EB"/>
    <rect x="116" y="196" width="74" height="10" rx="5" fill="#b8141b" opacity="0.82"/>
    <rect x="250" y="196" width="80" height="10" rx="5" fill="#b8141b" opacity="0.82"/>
    <rect x="96" y="236" width="126" height="18" rx="9" fill="url(#brand)"/>
  </g>
  <g transform="translate(344 126)" filter="url(#shadow)">
    <path d="M70 0c39 0 70 31 70 70s-31 70-70 70S0 109 0 70 31 0 70 0Z" fill="#ffffff" stroke="#E5E7EB"/>
    <path d="M36 82c24-26 45-26 68 0" fill="none" stroke="#dc1e26" stroke-width="8" stroke-linecap="round"/>
    <path d="M45 70c9-31 42-36 56-9" fill="none" stroke="#b8141b" stroke-width="8" stroke-linecap="round"/>
    <circle cx="70" cy="58" r="18" fill="#dc1e26"/>
    <circle cx="70" cy="58" r="7" fill="#ffffff"/>
  </g>
</svg>
