<svg xmlns="http://www.w3.org/2000/svg" viewBox="0 0 520 320" role="img" aria-labelledby="title desc">
  <title id="title">Hotel check-in details</title>
  <desc id="desc">A hotel key card, luggage, and confirmed stay details in the Atlas theme.</desc>
  <defs>
    <linearGradient id="brand" x1="0" y1="0" x2="1" y2="1">
      <stop offset="0" stop-color="#009b8f"/>
      <stop offset="1" stop-color="#3656d4"/>
    </linearGradient>
    <linearGradient id="card" x1="0" y1="0" x2="1" y2="1">
      <stop offset="0" stop-color="#ffffff"/>
      <stop offset="1" stop-color="#f7fbf8"/>
    </linearGradient>
    <filter id="shadow" x="-20%" y="-20%" width="140%" height="140%">
      <feDropShadow dx="0" dy="16" stdDeviation="16" flood-color="#0c2e33" flood-opacity="0.14"/>
    </filter>
  </defs>
  <rect width="520" height="320" rx="28" fill="#f7fbf8"/>
  <circle cx="94" cy="76" r="58" fill="#3656d4" opacity="0.1"/>
  <circle cx="454" cy="252" r="74" fill="#009b8f" opacity="0.1"/>
  <g filter="url(#shadow)">
    <rect x="92" y="64" width="236" height="174" rx="24" fill="url(#card)" stroke="#cfded8"/>
    <rect x="120" y="96" width="92" height="16" rx="8" fill="#17242d"/>
    <rect x="120" y="132" width="186" height="14" rx="7" fill="#66757b" opacity="0.42"/>
    <rect x="120" y="160" width="142" height="14" rx="7" fill="#66757b" opacity="0.42"/>
    <rect x="120" y="192" width="96" height="24" rx="12" fill="url(#brand)"/>
    <path d="M268 92l16 16 34-42" fill="none" stroke="#009b8f" stroke-width="9" stroke-linecap="round" stroke-linejoin="round"/>
  </g>
  <g transform="translate(312 132)" filter="url(#shadow)">
    <rect x="38" y="26" width="88" height="118" rx="22" fill="#f36f5f"/>
    <path d="M62 26V14c0-16 13-28 29-28s29 12 29 28v12" fill="none" stroke="#17242d" stroke-width="9" stroke-linecap="round"/>
    <circle cx="58" cy="154" r="10" fill="#17242d"/>
    <circle cx="112" cy="154" r="10" fill="#17242d"/>
    <rect x="62" y="58" width="54" height="10" rx="5" fill="#ffffff" opacity="0.78"/>
    <rect x="62" y="82" width="36" height="10" rx="5" fill="#ffffff" opacity="0.55"/>
  </g>
  <g transform="translate(78 214)" filter="url(#shadow)">
    <rect x="0" y="0" width="118" height="48" rx="18" fill="#ffffff" stroke="#cfded8"/>
    <circle cx="28" cy="24" r="12" fill="#eab84e"/>
    <path d="M51 24h38" stroke="#006f7a" stroke-width="8" stroke-linecap="round"/>
    <path d="M85 24v12M98 24v9" stroke="#006f7a" stroke-width="5" stroke-linecap="round"/>
  </g>
</svg>
