<svg width="640" height="820" viewBox="0 0 640 820" xmlns="http://www.w3.org/2000/svg" role="img" aria-labelledby="title desc">
  <title id="title">APSRTC Background</title>
  <desc id="desc">Scenic bridge at sunset</desc>
  <defs>
    <linearGradient id="sky" x1="0" y1="0" x2="0" y2="1">
      <stop offset="0%" stop-color="#4d87d8"/>
      <stop offset="62%" stop-color="#6ea2dc"/>
      <stop offset="100%" stop-color="#f3b57d"/>
    </linearGradient>
    <linearGradient id="water" x1="0" y1="0" x2="0" y2="1">
      <stop offset="0%" stop-color="#31639d"/>
      <stop offset="100%" stop-color="#1f3555"/>
    </linearGradient>
  </defs>
  <rect width="640" height="820" fill="url(#sky)"/>
  <rect y="470" width="640" height="350" fill="url(#water)"/>
  <path d="M40 438h560l-18 18H58z" fill="#8a6a4d"/>
  <path d="M70 450h500" stroke="#4a3a2e" stroke-width="6"/>
  <g stroke="#5e4b3c" stroke-width="10">
    <line x1="90" y1="450" x2="120" y2="620"/>
    <line x1="145" y1="450" x2="175" y2="620"/>
    <line x1="200" y1="450" x2="230" y2="620"/>
    <line x1="255" y1="450" x2="285" y2="620"/>
    <line x1="310" y1="450" x2="340" y2="620"/>
    <line x1="365" y1="450" x2="395" y2="620"/>
    <line x1="420" y1="450" x2="450" y2="620"/>
    <line x1="475" y1="450" x2="505" y2="620"/>
    <line x1="530" y1="450" x2="560" y2="620"/>
  </g>
  <circle cx="530" cy="150" r="46" fill="#ffd7a5" opacity="0.9"/>
</svg>
