<svg width="640" height="820" viewBox="0 0 640 820" xmlns="http://www.w3.org/2000/svg" role="img" aria-labelledby="title desc">
  <title id="title">Kerala RTC Background</title>
  <desc id="desc">Backwaters with houseboats and palms</desc>
  <defs>
    <linearGradient id="sky" x1="0" y1="0" x2="0" y2="1">
      <stop offset="0%" stop-color="#9cd4f3"/>
      <stop offset="100%" stop-color="#d5edf9"/>
    </linearGradient>
    <linearGradient id="water" x1="0" y1="0" x2="0" y2="1">
      <stop offset="0%" stop-color="#4e9b8e"/>
      <stop offset="100%" stop-color="#2f5f57"/>
    </linearGradient>
  </defs>
  <rect width="640" height="820" fill="url(#sky)"/>
  <rect y="470" width="640" height="350" fill="url(#water)"/>
  <g fill="#2c7a5c">
    <rect x="80" y="220" width="8" height="250"/>
    <rect x="170" y="210" width="8" height="260"/>
    <rect x="530" y="230" width="8" height="240"/>
    <rect x="580" y="220" width="8" height="250"/>
  </g>
  <g fill="#2f8f68">
    <ellipse cx="84" cy="218" rx="54" ry="22"/>
    <ellipse cx="174" cy="208" rx="62" ry="24"/>
    <ellipse cx="534" cy="228" rx="60" ry="23"/>
    <ellipse cx="584" cy="218" rx="50" ry="20"/>
  </g>
  <g>
    <path d="M210 545h170l-22 42H232z" fill="#6f4c2e"/>
    <path d="M260 510h74l44 35H216z" fill="#8b6239"/>
    <path d="M390 563h135l-18 30H403z" fill="#6f4c2e"/>
    <path d="M430 540h62l32 23h-126z" fill="#8b6239"/>
  </g>
</svg>
